# xmcd
#
# Track frame offsets:
#	150
#	40875
#	46700
#	73606
#	96448
#	100095
#	168081
#	172034
#	208529
#	244133
#	247641
#
# Disc length: 3838 seconds
#
# Revision: 1
# Processed by: cddbd v1.5.1PL2 Copyright (c) Steve Scherf et al.
# Submitted via: freedbtool 1.11
#
DISCID=870efc0b
DTITLE=Albert King with Stevie Ray Vaughan - In Session
DYEAR=1999
DGENRE=0
TTITLE0=Call It Stormy Monday
TTITLE1=Old Times
TTITLE2=Pride And Joy
TTITLE3=Ask Me No Questions
TTITLE4=Pep talk
TTITLE5=Bues At Sunrise
TTITLE6=Turn it over"
TTITLE7=Overall Junction
TTITLE8=Match Box Blues
TTITLE9=Who Is Stevie ?
TTITLE10=Don't Lie To Me
EXTD=
EXTT0=
EXTT1=
EXTT2=
EXTT3=
EXTT4=
EXTT5=
EXTT6=
EXTT7=
EXTT8=
EXTT9=
EXTT10=
PLAYORDER=
